# xmcd CD database file
#
# Track frame offsets:
#	150
#	14665
#	31840
#	48195
#	67640
#	86518
#	102903
#	121100
#	141683
#	156520
#	170160
#	190200
#	201065
#	218855
#	240558
#	257165
#
# Disc length: 3576 seconds
#
# Revision: 0
# Processed by: cddbd v1.5PL3 Copyright (c) Steve Scherf et al.
# Submitted via: CDex 1.60beta1
#
DISCID=e10df610
DTITLE=Stephane Grappelli - To Django
DYEAR=1972
DGENRE=Jazz
TTITLE0=Djangology
TTITLE1=Sweet Chorus
TTITLE2=Swing '39
TTITLE3=Minor Swing
TTITLE4=Venez Donc Chez Moi
TTITLE5=Nuages
TTITLE6=Fantaisie
TTITLE7=Dark Eyes
TTITLE8=Tears
TTITLE9=Avalon
TTITLE10=Manoir de Mes Reves
TTITLE11=Clopin-Clopant
TTITLE12=Daphne
TTITLE13=Blues
TTITLE14=Swing Guitars
TTITLE15=Are You in the Mood?
EXTD=YEAR: 1972
EXTT0=
EXTT1=
EXTT2=
EXTT3=
EXTT4=
EXTT5=
EXTT6=
EXTT7=
EXTT8=
EXTT9=
EXTT10=
EXTT11=
EXTT12=
EXTT13=
EXTT14=
EXTT15=
PLAYORDER=
